HIERARCHY
ROOT Hips
{
	OFFSET 0.000000 0.000000 0.000000
	CHANNELS 6 Xposition Yposition Zposition Zrotation Yrotation Xrotation 
	JOINT LeftUpLeg_virtual
	{
		OFFSET 0.000000 0.000000 0.000000
		CHANNELS 3 Zrotation Yrotation Xrotation
		JOINT LeftUpLeg
		{
			OFFSET 8.479694 -4.795517 -0.379053
			CHANNELS 3 Zrotation Yrotation Xrotation
			JOINT LeftLeg
			{
				OFFSET 0.485052 -32.551468 0.112863
				CHANNELS 3 Zrotation Yrotation Xrotation
				JOINT LeftFoot
				{
					OFFSET 0.438033 -32.635670 -3.012641
					CHANNELS 3 Zrotation Yrotation Xrotation
					JOINT LeftToeBase
					{
						OFFSET 0.970169 -13.225353 11.864223
						CHANNELS 3 Zrotation Yrotation Xrotation
						End Site
						{
							OFFSET 0.000000 0.000000 0.000000
						}
					}
				}
			}
		}
	}
	JOINT RightUpLeg_virtual
	{
		OFFSET 0.000000 0.000000 0.000000
		CHANNELS 3 Zrotation Yrotation Xrotation
		JOINT RightUpLeg
		{
			OFFSET -8.479694 -4.795517 -0.379053
			CHANNELS 3 Zrotation Yrotation Xrotation
			JOINT RightLeg
			{
				OFFSET -0.484100 -32.551483 0.112903
				CHANNELS 3 Zrotation Yrotation Xrotation
				JOINT RightFoot
				{
					OFFSET -0.438985 -32.635651 -3.012681
					CHANNELS 3 Zrotation Yrotation Xrotation
					JOINT RightToeBase
					{
						OFFSET -0.970169 -13.225354 11.864223
						CHANNELS 3 Zrotation Yrotation Xrotation
						End Site
						{
							OFFSET 0.000000 0.000000 0.000000
						}
					}
				}
			}
		}
	}
	JOINT Spine_virtual
	{
		OFFSET 0.000000 0.000000 0.000000
		CHANNELS 3 Zrotation Yrotation Xrotation
		JOINT Spine
		{
			OFFSET 0.000000 7.722015 1.166203
			CHANNELS 3 Zrotation Yrotation Xrotation
			JOINT Spine1
			{
				OFFSET 0.000000 12.024086 0.248766
				CHANNELS 3 Zrotation Yrotation Xrotation
				JOINT Spine2
				{
					OFFSET -0.000000 11.503036 -0.491240
					CHANNELS 3 Zrotation Yrotation Xrotation
					JOINT Neck_virtual
					{
						OFFSET 0.000000 0.000000 0.000000
						CHANNELS 3 Zrotation Yrotation Xrotation
						JOINT Neck
						{
							OFFSET 0.000000 18.430687 -3.123054
							CHANNELS 3 Zrotation Yrotation Xrotation
							JOINT Head
							{
								OFFSET -0.000000 9.051071 1.034021
								CHANNELS 3 Zrotation Yrotation Xrotation
								End Site
								{
									OFFSET 0.000000 0.000000 0.000000
								}
							}
						}
					}
					JOINT LeftShoulder_virtual
					{
						OFFSET 0.000000 0.000000 0.000000
						CHANNELS 3 Zrotation Yrotation Xrotation
						JOINT LeftShoulder
						{
							OFFSET 6.197824 13.665230 -4.064723
							CHANNELS 3 Zrotation Yrotation Xrotation
							JOINT LeftArm
							{
								OFFSET 7.778132 -0.187073 -1.709282
								CHANNELS 3 Zrotation Yrotation Xrotation
								JOINT LeftForeArm
								{
									OFFSET 21.954697 0.000000 -2.041093
									CHANNELS 3 Zrotation Yrotation Xrotation
									JOINT LeftHand
									{
										OFFSET 22.992908 0.000000 -0.870901
										CHANNELS 3 Zrotation Yrotation Xrotation
										End Site
										{
											OFFSET 0.000000 0.000000 0.000000
										}
									}
								}
							}
						}
					}
					JOINT RightShoulder_virtual
					{
						OFFSET 0.000000 0.000000 0.000000
						CHANNELS 3 Zrotation Yrotation Xrotation
						JOINT RightShoulder
						{
							OFFSET -6.197824 13.665230 -4.064723
							CHANNELS 3 Zrotation Yrotation Xrotation
							JOINT RightArm
							{
								OFFSET -7.778132 -0.187073 -1.709282
								CHANNELS 3 Zrotation Yrotation Xrotation
								JOINT RightForeArm
								{
									OFFSET -21.954697 0.000000 -2.041093
									CHANNELS 3 Zrotation Yrotation Xrotation
									JOINT RightHand
									{
										OFFSET -22.992908 0.000000 -0.870901
										CHANNELS 3 Zrotation Yrotation Xrotation
										End Site
										{
											OFFSET 0.000000 0.000000 0.000000
										}
									}
								}
							}
						}
					}
				}
			}
		}
	}
}
MOTION
Frames: 5
Frame Time: 0.033333
13.695781 79.870232 -66.547424 -179.948123 -9.132520 179.984514 -2.481696 1.599715 10.347950 7.904280 1.400235 -35.055335 5.621214 2.282503 59.249828 -2.371446 -10.089863 -7.969997 0.000000 0.000000 0.000000 0.907975 1.243272 9.977744 -1.133385 2.466466 -24.356082 -0.504465 4.866821 33.319992 7.582141 5.795398 -11.073466 0.000000 0.000000 0.000000 1.928156 4.004633 -0.022419 -2.705509 -1.570143 0.824454 -1.128010 -3.205909 6.981889 -0.021311 -0.007369 -0.001373 -1.345236 -1.944399 8.739818 2.138905 -7.461637 -9.410188 0.000000 0.000000 0.000000 0.469357 -1.590543 5.758679 -0.099568 -6.926205 4.329642 -56.128688 -26.150677 49.205489 165.557106 -79.985702 -143.384467 0.000000 0.000000 0.000000 -3.952492 0.229884 5.268378 24.079183 -1.839557 1.601342 20.422163 5.427837 -36.970998 0.399680 36.763288 -5.156580 0.000000 0.000000 0.000000 
13.530186 79.918900 -67.826897 179.991317 -10.978461 179.969064 -2.548344 1.977636 10.270512 7.341671 1.466282 -36.311324 5.124556 2.623958 53.960274 -2.060301 -9.963036 -7.435457 0.000000 0.000000 0.000000 1.102954 1.375264 10.086109 -0.887503 0.729236 -22.831340 -0.517832 4.882165 32.971840 7.172587 5.497583 -12.008201 0.000000 0.000000 0.000000 1.833194 4.162116 0.535864 -2.887801 -1.722265 0.663561 -1.200991 -3.157387 6.995681 0.018047 0.037764 -0.031282 -1.535467 -1.980684 8.706703 0.310786 -6.485853 -9.749800 0.000000 0.000000 0.000000 0.393121 -1.518375 5.796083 0.411511 -6.462180 4.306420 -56.606549 -25.777421 49.720977 166.808874 -79.683097 -144.651795 0.000000 0.000000 0.000000 -4.100241 0.240123 5.285947 24.433665 -1.419772 1.697385 20.360394 4.654633 -37.090991 0.535669 37.129639 -5.151785 0.000000 0.000000 0.000000 
13.313108 79.917419 -69.105255 -179.999896 -12.822372 179.924750 -2.658570 2.009578 10.238740 6.654781 1.777033 -37.152230 4.681720 2.968338 47.819954 -1.819389 -9.967007 -6.954470 0.000000 0.000000 0.000000 1.382970 1.330443 10.273994 -0.887435 -0.552801 -21.399891 -0.344676 4.782049 32.685515 6.790318 5.215683 -12.990635 0.000000 0.000000 0.000000 1.828716 4.236649 1.062067 -3.172165 -1.914339 0.485807 -1.293875 -3.168744 6.942287 0.016881 -0.019202 -0.010904 -1.614423 -1.930594 8.658420 -1.405351 -5.506269 -10.122167 0.000000 0.000000 0.000000 0.402544 -1.440744 5.800179 0.812877 -6.031136 4.246331 -57.273301 -25.345258 50.227606 168.378151 -79.532881 -146.264294 0.000000 0.000000 0.000000 -4.137728 0.337868 5.286807 24.698188 -1.045332 1.716232 20.383759 3.930971 -37.312063 0.865406 37.538201 -4.811654 0.000000 0.000000 0.000000 
13.020937 79.835793 -70.444389 179.878291 -14.389996 179.996399 -2.879789 1.964642 10.214057 5.856649 2.011563 -38.017543 4.320112 3.428832 41.731694 -1.552039 -10.069088 -6.675929 0.000000 0.000000 0.000000 1.472938 1.302352 10.493798 -0.797071 -1.741558 -20.116671 -0.403001 4.680920 32.339993 6.613533 5.171928 -14.006917 0.000000 0.000000 0.000000 1.708434 4.338452 1.444946 -3.582948 -2.013831 0.157501 -1.370551 -3.094940 7.026984 -0.019192 -0.003455 0.050576 -1.586706 -1.696493 8.547644 -2.901347 -4.570060 -10.511240 0.000000 0.000000 0.000000 0.458346 -1.418993 5.771357 1.138677 -5.806276 4.198086 -57.848328 -25.167779 50.794983 168.950876 -79.408756 -146.940838 0.000000 0.000000 0.000000 -4.129255 0.346054 5.113000 24.965509 -0.810491 1.909905 20.344883 3.232154 -37.219818 0.853766 37.861494 -4.843500 0.000000 0.000000 0.000000 
12.626330 79.660912 -71.898842 179.849632 -15.557299 -179.996849 -3.131341 2.024573 10.336574 4.898719 2.657141 -38.961421 4.094092 3.858115 36.492885 -1.194369 -10.242438 -6.836662 0.000000 0.000000 0.000000 1.524251 1.054282 10.809981 -0.594837 -2.988663 -18.884478 -0.535319 4.890307 32.206159 6.687787 5.405659 -15.109623 0.000000 0.000000 0.000000 1.572043 4.372576 1.839444 -4.014340 -2.106737 -0.196430 -1.412458 -2.998722 7.020894 0.007760 0.023578 -0.026507 -1.611648 -1.684150 8.559145 -4.241526 -3.635691 -10.947174 0.000000 0.000000 0.000000 0.497179 -1.310682 5.802612 1.421370 -5.579671 4.186984 -58.462294 -25.033702 51.335193 169.821548 -79.452524 -148.014557 0.000000 0.000000 0.000000 -4.145420 0.478746 5.167442 25.204349 -0.486157 2.072025 20.147919 2.734898 -37.192511 0.988363 37.962123 -4.721475 0.000000 0.000000 0.000000 
